<svg xmlns="http://www.w3.org/2000/svg" width="58.621" height="21.226" viewBox="0 0 58.621 21.226"><defs><style>.a{fill:#00111a;}</style></defs><path class="a" d="M144.5,64.967a14.972,14.972,0,0,1,4.832-3.506,13.322,13.322,0,0,1,5.972-1.048A28.7,28.7,0,0,1,166.8,63.8c1.795.88,3.511,1.9,5.206,2.808,1.71.922,3.44,1.795,5.175,2.66a61.662,61.662,0,0,0,10.776,4.354c.933.271,1.882.478,2.833.672a14.618,14.618,0,0,0,2.827.344,6.272,6.272,0,0,0,4.715-1.874,3.61,3.61,0,0,0,.555-3.98,6.111,6.111,0,0,0-3.644-2.927,14.591,14.591,0,0,0-5.457-.742,23.738,23.738,0,0,0-5.719.9,46.113,46.113,0,0,0-10.694,4.775,81.514,81.514,0,0,1-10.4,5.618c-3.607,1.574-7.392,3.079-11.6,3.166a9.363,9.363,0,0,1-6.2-1.953,5.3,5.3,0,0,1-1.787-3.15,5.737,5.737,0,0,1,.58-3.552,8.052,8.052,0,0,1,5.311-3.882,14.563,14.563,0,0,1,6.244-.016,53.422,53.422,0,0,1,11.3,3.931A104.194,104.194,0,0,1,177.2,76.58,35.417,35.417,0,0,0,188.006,80.5a21.54,21.54,0,0,0,5.757.285,8.356,8.356,0,0,0,5.272-2.129,6.187,6.187,0,0,1-2.337,1.8,11.575,11.575,0,0,1-2.855.891,21.4,21.4,0,0,1-5.975.135A34.086,34.086,0,0,1,176.447,78c-3.533-1.866-6.841-3.816-10.35-5.527a51.922,51.922,0,0,0-5.326-2.312,28.411,28.411,0,0,0-5.537-1.484,11.738,11.738,0,0,0-5.424.27,6.19,6.19,0,0,0-3.834,2.985,3.3,3.3,0,0,0,.688,4.039,7.476,7.476,0,0,0,4.756,1.633c3.69.2,7.514-.891,11.17-2.162,1.828-.667,3.63-1.422,5.4-2.252s3.465-1.8,5.212-2.712a111.854,111.854,0,0,1,10.7-4.976c3.671-1.355,7.642-2.671,11.955-1.827a9.217,9.217,0,0,1,3.1,1.266,7.089,7.089,0,0,1,2.393,2.657,5.6,5.6,0,0,1,.447,3.706,5.439,5.439,0,0,1-1.969,3.073,8.722,8.722,0,0,1-6.256,1.475,45.7,45.7,0,0,1-5.9-1.129,65.956,65.956,0,0,1-11.3-3.737,53.654,53.654,0,0,1-5.3-2.707c-1.732-1-3.365-2.034-5.07-2.931a40.463,40.463,0,0,0-5.254-2.363,21.842,21.842,0,0,0-5.529-1.343,13.352,13.352,0,0,0-5.584.6,15.589,15.589,0,0,0-4.925,2.946.157.157,0,0,1-.215-.229Z" transform="translate(-143.31 -60.399)"/></svg>